<svg xmlns="http://www.w3.org/2000/svg" width="256" height="256" viewBox="0 0 100 100"><rect width="100" height="100" rx="20" fill="#131313"></rect><path fill="#ec0000" d="M50.36 64.28L50.36 64.28Q53.72 64.28 55.92 63.60Q58.12 62.92 59.08 62.28L59.08 62.28L59.08 50.68L49.16 51.72Q45 52.12 43 53.60Q41 55.08 41 57.96L41 57.96Q41 61 43.32 62.64Q45.64 64.28 50.36 64.28ZM50.28 30.44L50.28 30.44Q57.24 30.44 61.32 33.56Q65.40 36.68 65.40 43.40L65.40 43.40L65.40 62.36Q65.40 64.12 64.72 65.04Q64.04 65.96 62.68 66.76L62.68 66.76Q60.76 67.88 57.60 68.72Q54.44 69.56 50.36 69.56L50.36 69.56Q42.84 69.56 38.72 66.60Q34.60 63.64 34.60 58.04L34.60 58.04Q34.60 52.76 38.04 50.08Q41.48 47.40 47.72 46.76L47.72 46.76L59.08 45.64L59.08 43.40Q59.08 39.40 56.68 37.56Q54.28 35.72 50.20 35.72L50.20 35.72Q46.84 35.72 43.88 36.68Q40.92 37.64 38.60 38.84L38.60 38.84Q37.96 38.28 37.44 37.56Q36.92 36.84 36.92 35.96L36.92 35.96Q36.92 34.84 37.48 34.12Q38.04 33.40 39.24 32.76L39.24 32.76Q41.40 31.64 44.20 31.04Q47 30.44 50.28 30.44Z"></path></svg>