<svg xmlns="http://www.w3.org/2000/svg" width="256" height="256" viewBox="0 0 100 100"><rect width="100" height="100" rx="20" fill="#131313"></rect><path fill="#ec0000" d="M22.01 58.80L20.66 54.81L12.62 54.81Q12.41 55.41 12.17 56.12Q11.93 56.82 11.71 57.50Q11.48 58.17 11.27 58.76Q11.06 59.34 10.94 59.73L10.94 59.73Q10.52 59.91 9.95 59.91L9.95 59.91Q9.47 59.91 9.10 59.66Q8.72 59.40 8.72 58.83L8.72 58.83Q8.72 58.56 8.81 58.28Q8.90 57.99 9.02 57.66L9.02 57.66Q9.47 56.40 10.18 54.42Q10.88 52.45 11.71 50.21Q12.53 47.97 13.39 45.71Q14.24 43.44 14.96 41.64L14.96 41.64Q15.20 41.52 15.68 41.41Q16.16 41.28 16.67 41.28L16.67 41.28Q17.27 41.28 17.83 41.46Q18.38 41.64 18.53 42.06L18.53 42.06Q19.25 43.80 20.08 46.04Q20.90 48.27 21.74 50.61Q22.58 52.95 23.35 55.22Q24.11 57.48 24.71 59.31L24.71 59.31Q24.47 59.58 24.14 59.75Q23.81 59.91 23.39 59.91L23.39 59.91Q22.82 59.91 22.52 59.66Q22.22 59.40 22.01 58.80L22.01 58.80ZM16.76 43.33L16.64 43.33Q16.31 44.22 15.89 45.38Q15.47 46.53 15.02 47.80Q14.57 49.05 14.12 50.34Q13.67 51.63 13.28 52.80L13.28 52.80L20.03 52.80Q19.58 51.45 19.10 50.09Q18.62 48.72 18.19 47.46Q17.75 46.20 17.38 45.14Q17.00 44.07 16.76 43.33L16.76 43.33ZM30.38 46.77L30.38 59.61Q30.23 59.67 29.93 59.75Q29.63 59.82 29.27 59.82L29.27 59.82Q27.98 59.82 27.98 58.74L27.98 58.74L27.98 45.88Q28.13 45.81 28.45 45.74Q28.76 45.66 29.12 45.66L29.12 45.66Q30.38 45.66 30.38 46.77L30.38 46.77ZM27.62 41.44L27.62 41.44Q27.62 40.80 28.06 40.37Q28.49 39.94 29.18 39.94L29.18 39.94Q29.87 39.94 30.29 40.37Q30.71 40.80 30.71 41.44L30.71 41.44Q30.71 42.06 30.29 42.50Q29.87 42.94 29.18 42.94L29.18 42.94Q28.49 42.94 28.06 42.50Q27.62 42.06 27.62 41.44ZM37.46 48.39L37.46 59.61Q37.31 59.67 37.01 59.75Q36.71 59.82 36.35 59.82L36.35 59.82Q35.06 59.82 35.06 58.74L35.06 58.74L35.06 48.57Q35.06 47.88 35.32 47.48Q35.57 47.07 36.17 46.68L36.17 46.68Q36.95 46.17 38.29 45.80Q39.62 45.42 41.30 45.42L41.30 45.42Q43.70 45.42 43.70 46.63L43.70 46.63Q43.70 46.92 43.61 47.18Q43.52 47.43 43.37 47.61L43.37 47.61Q43.07 47.55 42.59 47.49Q42.11 47.43 41.63 47.43L41.63 47.43Q40.25 47.43 39.20 47.72Q38.15 48.00 37.46 48.39L37.46 48.39ZM58.37 41.10L58.37 57.39Q58.37 57.99 58.12 58.32Q57.86 58.65 57.32 58.98L57.32 58.98Q56.72 59.38 55.61 59.72Q54.50 60.06 53.06 60.06L53.06 60.06Q51.44 60.06 50.09 59.64Q48.74 59.22 47.77 58.34Q46.79 57.45 46.27 56.09Q45.74 54.72 45.74 52.80L45.74 52.80Q45.74 50.85 46.28 49.46Q46.82 48.06 47.73 47.16Q48.65 46.27 49.90 45.84Q51.14 45.42 52.55 45.42L52.55 45.42Q53.51 45.42 54.41 45.66Q55.31 45.91 55.97 46.27L55.97 46.27L55.97 40.23Q56.12 40.17 56.44 40.10Q56.75 40.02 57.08 40.02L57.08 40.02Q58.37 40.02 58.37 41.10L58.37 41.10ZM55.97 57.30L55.97 48.42Q55.37 48.00 54.59 47.70Q53.81 47.41 52.79 47.41L52.79 47.41Q51.86 47.41 51.04 47.69Q50.21 47.97 49.58 48.62Q48.95 49.27 48.58 50.31Q48.20 51.36 48.20 52.86L48.20 52.86Q48.20 55.63 49.52 56.85Q50.84 58.08 53.03 58.08L53.03 58.08Q54.08 58.08 54.76 57.86Q55.43 57.63 55.97 57.30L55.97 57.30ZM72.53 50.64L72.53 50.64Q72.53 48.96 71.59 48.18Q70.64 47.41 69.05 47.41L69.05 47.41Q67.85 47.41 66.92 47.70Q65.99 48.00 65.33 48.39L65.33 48.39L65.33 59.61Q65.18 59.67 64.88 59.75Q64.58 59.82 64.22 59.82L64.22 59.82Q62.93 59.82 62.93 58.74L62.93 58.74L62.93 48.52Q62.93 47.88 63.19 47.48Q63.44 47.07 64.07 46.68L64.07 46.68Q64.85 46.20 66.14 45.81Q67.43 45.42 69.05 45.42L69.05 45.42Q71.78 45.42 73.36 46.66Q74.93 47.88 74.93 50.52L74.93 50.52L74.93 59.61Q74.78 59.67 74.47 59.75Q74.15 59.82 73.82 59.82L73.82 59.82Q72.53 59.82 72.53 58.74L72.53 58.74L72.53 50.64ZM91.28 41.10L91.28 57.39Q91.28 57.99 91.03 58.32Q90.77 58.65 90.23 58.98L90.23 58.98Q89.63 59.38 88.52 59.72Q87.41 60.06 85.97 60.06L85.97 60.06Q84.35 60.06 83 59.64Q81.65 59.22 80.68 58.34Q79.70 57.45 79.18 56.09Q78.65 54.72 78.65 52.80L78.65 52.80Q78.65 50.85 79.19 49.46Q79.73 48.06 80.65 47.16Q81.56 46.27 82.81 45.84Q84.05 45.42 85.46 45.42L85.46 45.42Q86.42 45.42 87.32 45.66Q88.22 45.91 88.88 46.27L88.88 46.27L88.88 40.23Q89.03 40.17 89.34 40.10Q89.66 40.02 89.99 40.02L89.99 40.02Q91.28 40.02 91.28 41.10L91.28 41.10ZM88.88 57.30L88.88 48.42Q88.28 48.00 87.50 47.70Q86.72 47.41 85.70 47.41L85.70 47.41Q84.77 47.41 83.95 47.69Q83.12 47.97 82.49 48.62Q81.86 49.27 81.49 50.31Q81.11 51.36 81.11 52.86L81.11 52.86Q81.11 55.63 82.43 56.85Q83.75 58.08 85.94 58.08L85.94 58.08Q86.99 58.08 87.67 57.86Q88.34 57.63 88.88 57.30L88.88 57.30Z"></path></svg>