<?xml version="1.0" standalone="no"?>
<!DOCTYPE svg PUBLIC "-//W3C//DTD SVG 20010904//EN"
 "http://www.w3.org/TR/2001/REC-SVG-20010904/DTD/svg10.dtd">
<svg version="1.0" xmlns="http://www.w3.org/2000/svg"
 width="300.000000pt" height="300.000000pt" viewBox="0 0 300.000000 300.000000"
 preserveAspectRatio="xMidYMid meet">
<metadata>
Created by potrace 1.10, written by Peter Selinger 2001-2011
</metadata>
<g transform="translate(0.000000,300.000000) scale(0.100000,-0.100000)"
fill="#000000" stroke="none">
<path d="M1230 2221 c0 -4 30 -12 67 -18 108 -19 106 -10 33 -250 -35 -114
-78 -257 -96 -316 -18 -60 -28 -107 -22 -105 6 2 51 139 100 303 50 165 93
304 98 308 13 14 45 -71 130 -345 l83 -268 89 0 90 0 -7 28 c-3 15 -50 171
-104 347 l-97 320 -182 2 c-100 1 -182 -2 -182 -6z"/>
<path d="M1185 1423 c-10 -27 -23 -51 -29 -55 -6 -5 -1 -8 12 -8 13 0 22 6 22
15 0 9 9 15 25 15 16 0 25 -6 25 -15 0 -8 8 -15 18 -15 17 0 17 4 -7 55 -14
30 -30 55 -37 55 -6 0 -19 -21 -29 -47z m45 -9 c0 -8 -7 -14 -15 -14 -17 0
-18 2 -9 24 7 18 24 12 24 -10z"/>
<path d="M1295 1415 c0 -42 3 -55 15 -55 12 0 15 13 15 55 0 42 -3 55 -15 55
-12 0 -15 -13 -15 -55z"/>
<path d="M1355 1415 c0 -45 3 -55 17 -55 11 0 15 6 11 20 -3 11 -1 20 3 20 5
0 15 -9 22 -20 7 -11 20 -20 29 -20 14 0 12 4 -7 25 -13 14 -19 25 -13 25 17
0 25 31 12 46 -6 8 -26 14 -43 14 -31 0 -31 0 -31 -55z m53 22 c2 -10 -3 -17
-12 -17 -10 0 -16 9 -16 21 0 24 23 21 28 -4z"/>
<path d="M1465 1415 l0 -55 41 0 c46 0 64 14 64 48 0 45 -17 62 -63 62 l-42 0
0 -55z m66 35 c25 -14 25 -56 -1 -70 -28 -15 -40 -5 -40 34 0 46 8 53 41 36z"/>
<path d="M1585 1415 c0 -43 3 -55 15 -55 12 0 15 9 12 38 l-3 37 31 -37 c18
-21 36 -38 40 -38 5 0 10 25 12 55 2 45 0 55 -12 55 -12 0 -15 -9 -12 -37 l4
-38 -26 30 c-14 17 -25 33 -26 38 0 4 -8 7 -17 7 -15 0 -18 -9 -18 -55z"/>
<path d="M1715 1415 l0 -56 45 3 c36 2 47 8 59 29 13 24 13 29 -2 53 -14 21
-25 26 -60 26 l-42 0 0 -55z m73 33 c25 -25 8 -78 -25 -78 -9 0 -13 15 -13 45
0 46 13 58 38 33z"/>
<path d="M1700 1287 c0 -7 14 -54 30 -105 36 -116 44 -169 31 -205 -13 -33
-63 -57 -121 -57 -22 0 -40 -4 -40 -10 0 -6 93 -10 260 -10 167 0 260 4 260
10 0 6 -15 10 -32 10 -42 0 -93 31 -111 67 -8 15 -33 88 -56 161 -22 74 -43
137 -46 142 -8 13 -175 10 -175 -3z"/>
<path d="M1126 1279 c-87 -272 -99 -300 -142 -333 -14 -10 -43 -20 -65 -23
-21 -3 -39 -10 -39 -14 0 -5 83 -9 185 -9 102 0 185 4 185 9 0 5 -25 11 -55
13 -120 10 -142 76 -85 260 17 55 29 103 26 105 -3 3 -8 0 -10 -8z"/>
</g>
</svg>
